# xmcd
#
# Track frame offsets: 
#        150
#        12970
#        26850
#        40770
#        52715
#        66070
#        80600
#        98850
#        116129
#        128655
#        141900
#        154900
#        167850
#        180950
#        193930
#        206379
#        218825
#        230995
#        244320
#        257650
#        270979
#        284323
#        299570
#
# Disc length: 4180 seconds
#
# Revision: 1
# Processed by: cddbd v1.5.2PL0 Copyright (c) Steve Scherf et al.
# Submitted via: ExactAudioCopy v0.95b4
#
DISCID=56105217
DTITLE=Charlie Parker  Vol.5 1947 - Bebop Story 027
DYEAR=2008
DGENRE=Bebob
TTITLE0=Bird Feathers
TTITLE1=Klactoveesedstene (1)
TTITLE2=Klactoveesedstene (2)
TTITLE3=Scrapple From The Apple (1)
TTITLE4=Scrapple From The Apple (2)
TTITLE5=My Old Flame
TTITLE6=Out Of Nowhere (1)
TTITLE7=Out Of Nowhere (2)
TTITLE8=Don't Blame Me
TTITLE9=Drifting On A Reed (1)
TTITLE10=Drifting On A Reed (2)
TTITLE11=Drifting On A Reed (3)
TTITLE12=Quasimodo (1)
TTITLE13=Quasimodo (2)
TTITLE14=Charlie's Wig (1)
TTITLE15=Charlie's Wig (2)
TTITLE16=Charlie's Wig (3)
TTITLE17=Bird Feathers (1)
TTITLE18=Bird Feathers (2)
TTITLE19=Crazyology (1)
TTITLE20=Crazyology (2)
TTITLE21=How Deep Is The Ocean (1)
TTITLE22=How Deep Is The Ocean (1)
EXTD=YEAR: 2008
EXTT0=
EXTT1=
EXTT2=
EXTT3=
EXTT4=
EXTT5=
EXTT6=
EXTT7=
EXTT8=
EXTT9=
EXTT10=
EXTT11=
EXTT12=
EXTT13=
EXTT14=
EXTT15=
EXTT16=
EXTT17=
EXTT18=
EXTT19=
EXTT20=
EXTT21=
EXTT22=
PLAYORDER=
